#N canvas 161 41 1870 1207 10;
#X declare -path heavylib;
#X obj 221 30 tgl 15 0 empty empty empty 17 7 0 10 -262144 -1 -1 0
1;
#X obj 230 135 bng 15 250 50 0 empty empty empty 17 7 0 10 -262144
-1 -1;
#X obj 646 116 bng 15 250 50 0 empty empty empty 17 7 0 10 -262144
-1 -1;
#X obj 230 374 tabread c_mystic_chord;
#X obj 646 63 loadbang;
#X obj 262 276 bng 15 250 50 0 empty empty empty 17 7 0 10 -262144
-1 -1;
#X msg 646 167 \; c_mystic_chord 0 36 42 34 40 43 50;
#X obj 230 330 hv.drunk 0 3;
#X obj 262 253 loadbang;
#X obj 429 276 bng 15 250 50 0 empty empty empty 17 7 0 10 -262144
-1 -1;
#X obj 431 399 nbx 5 14 -1e+37 1e+37 0 0 empty empty empty 0 -8 0 10
-262144 -1 -1 48 256;
#X obj 228 402 nbx 5 14 -1e+37 1e+37 0 0 empty empty empty 0 -8 0 10
-262144 -1 -1 0 256;
#X text 499 398 random vel;
#X text 47 398 random pitch from array;
#X obj 211 520 makenote;
#X obj 221 191 t b b b;
#X obj 210 443 t f f b;
#X text 362 484 random duration;
#X obj 198 832 dac~;
#X obj 257 485 random 30 120;
#X obj 212 753 voice~;
#X obj 429 319 random 100;
#X obj 433 357 + 27;
#X obj 637 226 table c_mystic_chord 7;
#X obj 431 39 declare -path heavylib;
#X obj 262 297 7;
#X text 290 297 7 is hardcoded for now;
#X text 784 227 7 is hardcoded for now;
#X obj 97 81 r bang @hv_event;
#X obj 218 80 metro 250;
#X connect 0 0 29 0;
#X connect 1 0 15 0;
#X connect 2 0 6 0;
#X connect 3 0 11 0;
#X connect 4 0 2 0;
#X connect 5 0 25 0;
#X connect 7 0 3 0;
#X connect 8 0 5 0;
#X connect 9 0 21 0;
#X connect 10 0 16 0;
#X connect 11 0 16 0;
#X connect 14 0 20 0;
#X connect 14 1 20 1;
#X connect 15 0 16 0;
#X connect 15 1 7 0;
#X connect 15 2 9 0;
#X connect 16 0 14 0;
#X connect 16 1 14 1;
#X connect 16 2 19 0;
#X connect 19 0 14 2;
#X connect 20 0 18 1;
#X connect 20 0 18 0;
#X connect 21 0 22 0;
#X connect 22 0 10 0;
#X connect 25 0 7 1;
#X connect 28 0 1 0;
#X connect 29 0 1 0;
