#N canvas 161 41 1716 1053 10;
#X declare -path heavylib;
#X obj 221 30 tgl 15 0 empty empty empty 17 7 0 10 -262144 -1 -1 0
1;
#X obj 220 81 metro 200;
#X obj 97 81 r bang @hv_param;
#X obj 230 135 bng 15 250 50 0 empty empty empty 17 7 0 10 -262144
-1 -1;
#X obj 646 116 bng 15 250 50 0 empty empty empty 17 7 0 10 -262144
-1 -1;
#X obj 230 374 tabread c_mystic_chord;
#X obj 646 63 loadbang;
#X obj 262 276 bng 15 250 50 0 empty empty empty 17 7 0 10 -262144
-1 -1;
#X msg 646 167 \; c_mystic_chord 0 36 42 34 40 43 50;
#X obj 230 330 hv.drunk 0 3;
#X obj 262 253 loadbang;
#X obj 429 276 bng 15 250 50 0 empty empty empty 17 7 0 10 -262144
-1 -1;
#X obj 431 399 nbx 5 14 -1e+37 1e+37 0 0 empty empty empty 0 -8 0 10
-262144 -1 -1 80 256;
#X obj 228 402 nbx 5 14 -1e+37 1e+37 0 0 empty empty empty 0 -8 0 10
-262144 -1 -1 0 256;
#X text 499 398 random vel;
#X text 47 398 random pitch from array;
#X obj 211 608 pack 0 0 0;
#X obj 211 520 makenote;
#X obj 221 191 t b b b;
#X obj 210 443 t f f b;
#X text 362 484 random duration;
#X obj 1065 349 dac~;
#X obj 257 485 random 30 120;
#X obj 168 762 voice~;
#X obj 429 319 random 100;
#X obj 433 357 + 27;
#X obj 1001 162 hv.reverb;
#X obj 998 219 hv.filter bandpass2;
#X obj 1153 219 hv.filter bandpass2;
#X obj 289 80 metro 102;
#X obj 360 80 metro 134;
#X obj 1124 161 hv.reverb;
#X obj 211 564 poly 16 1, f 10;
#X obj 213 644 route 1 2 3 4 5 6 7 8 9 10 11 12 13 14 15 16, f 218
;
#X obj 499 969 throw~ voiceleft;
#X obj 992 969 throw~ voiceright;
#X obj 1001 95 catch~ voiceleft;
#X obj 1124 95 catch~ voiceright;
#X obj 637 226 table c_mystic_chord 7;
#X obj 249 762 voice~;
#X obj 347 762 voice~;
#X obj 439 762 voice~;
#X obj 515 762 voice~;
#X obj 596 762 voice~;
#X obj 674 762 voice~;
#X obj 766 762 voice~;
#X obj 852 762 voice~;
#X obj 933 762 voice~;
#X obj 1014 762 voice~;
#X obj 1097 762 voice~;
#X obj 1173 762 voice~;
#X obj 1254 762 voice~;
#X obj 1352 762 voice~;
#X obj 1444 762 voice~;
#X obj 431 39 declare -path heavylib;
#X obj 262 297 7;
#X text 290 297 7 is hardcoded for now;
#X text 784 227 7 is hardcoded for now;
#X obj 168 720 unpack f f;
#X obj 244 721 unpack f f;
#X obj 329 721 unpack f f;
#X obj 417 722 unpack f f;
#X obj 504 721 unpack f f;
#X obj 589 722 unpack f f;
#X obj 675 720 unpack f f;
#X obj 767 720 unpack f f;
#X obj 843 718 unpack f f;
#X obj 922 716 unpack f f;
#X obj 1004 715 unpack f f;
#X obj 1085 712 unpack f f;
#X obj 1164 712 unpack f f;
#X obj 1244 713 unpack f f;
#X obj 1435 711 unpack f f;
#X obj 1341 710 unpack f f;
#X connect 0 0 1 0;
#X connect 0 0 29 0;
#X connect 0 0 30 0;
#X connect 1 0 3 0;
#X connect 2 0 3 0;
#X connect 3 0 18 0;
#X connect 4 0 8 0;
#X connect 5 0 13 0;
#X connect 6 0 4 0;
#X connect 7 0 55 0;
#X connect 9 0 5 0;
#X connect 10 0 7 0;
#X connect 11 0 24 0;
#X connect 12 0 19 0;
#X connect 13 0 19 0;
#X connect 16 0 33 0;
#X connect 17 0 32 0;
#X connect 17 1 32 1;
#X connect 18 0 19 0;
#X connect 18 1 9 0;
#X connect 18 2 11 0;
#X connect 19 0 17 0;
#X connect 19 1 17 1;
#X connect 19 2 22 0;
#X connect 22 0 17 2;
#X connect 23 0 34 0;
#X connect 23 1 35 0;
#X connect 24 0 25 0;
#X connect 25 0 12 0;
#X connect 26 0 27 0;
#X connect 26 1 28 0;
#X connect 27 0 21 0;
#X connect 28 0 21 1;
#X connect 29 0 3 0;
#X connect 30 0 3 0;
#X connect 31 0 27 0;
#X connect 31 1 28 0;
#X connect 32 0 16 0;
#X connect 32 1 16 1;
#X connect 32 2 16 2;
#X connect 33 0 58 0;
#X connect 33 1 59 0;
#X connect 33 2 60 0;
#X connect 33 3 61 0;
#X connect 33 4 62 0;
#X connect 33 5 63 0;
#X connect 33 6 64 0;
#X connect 33 7 65 0;
#X connect 33 8 66 0;
#X connect 33 9 67 0;
#X connect 33 10 68 0;
#X connect 33 11 69 0;
#X connect 33 12 70 0;
#X connect 33 13 71 0;
#X connect 33 14 73 0;
#X connect 33 15 72 0;
#X connect 36 0 26 0;
#X connect 37 0 31 0;
#X connect 39 0 34 0;
#X connect 39 1 35 0;
#X connect 40 0 34 0;
#X connect 40 1 35 0;
#X connect 41 0 34 0;
#X connect 41 1 35 0;
#X connect 42 0 34 0;
#X connect 42 1 35 0;
#X connect 43 0 34 0;
#X connect 43 1 35 0;
#X connect 44 0 34 0;
#X connect 44 1 35 0;
#X connect 45 0 34 0;
#X connect 45 1 35 0;
#X connect 46 0 34 0;
#X connect 46 1 35 0;
#X connect 47 0 34 0;
#X connect 47 1 35 0;
#X connect 48 0 34 0;
#X connect 48 1 35 0;
#X connect 49 0 34 0;
#X connect 49 1 35 0;
#X connect 50 0 34 0;
#X connect 50 1 35 0;
#X connect 51 0 34 0;
#X connect 51 1 35 0;
#X connect 52 0 34 0;
#X connect 52 1 35 0;
#X connect 53 0 34 0;
#X connect 53 1 35 0;
#X connect 55 0 9 1;
#X connect 58 0 23 0;
#X connect 58 1 23 1;
#X connect 59 0 39 0;
#X connect 59 1 39 1;
#X connect 60 0 40 0;
#X connect 60 1 40 1;
#X connect 61 0 41 0;
#X connect 61 1 41 1;
#X connect 62 0 42 0;
#X connect 62 1 42 1;
#X connect 63 0 43 0;
#X connect 63 1 43 1;
#X connect 64 0 44 0;
#X connect 64 1 44 1;
#X connect 65 0 45 0;
#X connect 65 1 45 1;
#X connect 66 0 46 0;
#X connect 66 1 46 1;
#X connect 67 0 47 0;
#X connect 67 1 47 1;
#X connect 68 0 48 0;
#X connect 68 1 48 1;
#X connect 69 0 49 0;
#X connect 69 1 49 1;
#X connect 70 0 50 0;
#X connect 70 1 50 1;
#X connect 71 0 51 0;
#X connect 71 1 51 1;
#X connect 72 0 53 0;
#X connect 72 1 53 1;
#X connect 73 0 52 0;
#X connect 73 1 52 1;
