#N canvas 1013 128 776 662 10;
#X obj 90 63 inlet note;
#X obj 219 37 inlet velocity;
#X obj 93 138 mtof;
#X obj 118 92 nbx 5 14 -1e+37 1e+37 0 0 empty empty empty 0 -8 0 10
-262144 -1 -1 89 256;
#X obj 166 386 *~;
#X obj 86 166 * 2;
#X obj 342 277 snapshot~;
#X obj 385 321 nbx 5 14 -1e+37 1e+37 0 0 empty empty empty 0 -8 0 10
-262144 -1 -1 0 256;
#X obj 328 229 hv.vline;
#X msg 341 190 0 0 0 \, 1 5 0 \, 0.02 50 5 \, 0 100 55;
#X obj 263 252 *~;
#X obj 252 169 / 127;
#X obj 244 200 sig~;
#X obj 226 85 select 0;
#X obj 328 130 bng 15 250 50 0 empty empty empty 17 7 0 10 -262144
-1 -1;
#X obj 247 62 nbx 5 14 -1e+37 1e+37 0 0 empty empty empty 0 -8 0 10
-262144 -1 -1 0 256;
#X obj 197 121 nbx 5 14 -1e+37 1e+37 0 0 empty empty empty 0 -8 0 10
-262144 -1 -1 89 256;
#X obj 151 256 hv.pinknoise;
#X obj 127 323 +~;
#X obj 165 413 *~ 0.1;
#X obj 127 545 outlet~ audioleft;
#X obj 294 547 outlet~ audioright;
#X obj 498 274 loadbang;
#X obj 498 299 bng 15 250 50 0 empty empty empty 17 7 0 10 -262144
-1 -1;
#X obj 129 484 *~;
#X obj 241 481 *~;
#X obj 449 403 nbx 5 14 -1e+37 1e+37 0 0 empty empty empty 0 -8 0 10
-262144 -1 -1 0.102362 256;
#X obj 541 485 nbx 5 14 -1e+37 1e+37 0 0 empty empty empty 0 -8 0 10
-262144 -1 -1 0.897638 256;
#X obj 493 324 random 127;
#X obj 491 349 / 127;
#X obj 69 192 hv.osc saw;
#X obj 69 229 hv.filter highpass;
#X obj 67 288 *~ 0.3;
#X obj 148 290 *~ 0.7;
#X msg 551 380 1 \$1;
#X obj 545 409 -, f 4;
#X connect 0 0 2 0;
#X connect 0 0 3 0;
#X connect 1 0 13 0;
#X connect 1 0 15 0;
#X connect 2 0 5 0;
#X connect 4 0 19 0;
#X connect 5 0 30 0;
#X connect 6 0 7 0;
#X connect 8 0 6 0;
#X connect 8 0 10 1;
#X connect 9 0 8 0;
#X connect 10 0 4 1;
#X connect 11 0 12 0;
#X connect 12 0 10 0;
#X connect 13 1 11 0;
#X connect 13 1 14 0;
#X connect 13 1 16 0;
#X connect 14 0 9 0;
#X connect 17 0 33 0;
#X connect 18 0 4 0;
#X connect 19 0 24 0;
#X connect 19 0 25 0;
#X connect 22 0 23 0;
#X connect 23 0 28 0;
#X connect 24 0 20 0;
#X connect 25 0 21 0;
#X connect 28 0 24 1;
#X connect 28 0 29 0;
#X connect 29 0 26 0;
#X connect 29 0 34 0;
#X connect 30 0 31 0;
#X connect 31 0 32 0;
#X connect 32 0 18 0;
#X connect 33 0 18 1;
#X connect 34 0 35 0;
#X connect 35 0 27 0;
#X connect 35 0 25 1;
