#N canvas 600 677 776 662 10;
#X obj 90 63 inlet note;
#X obj 219 37 inlet velocity;
#X obj 62 130 mtof;
#X obj 118 92 nbx 5 14 -1e+37 1e+37 0 0 empty empty empty 0 -8 0 10
-262144 -1 -1 48 256;
#X obj 188 480 *~;
#X obj 55 158 * 2;
#X obj 350 323 hv.vline;
#X msg 341 190 0 0 0 \, 1 5 0 \, 0.02 50 5 \, 0 100 55;
#X obj 285 346 *~;
#X obj 252 169 / 127;
#X obj 244 200 sig~;
#X obj 226 85 select 0;
#X obj 328 130 bng 15 250 50 0 empty empty empty 17 7 0 10 -262144
-1 -1;
#X obj 247 62 nbx 5 14 -1e+37 1e+37 0 0 empty empty empty 0 -8 0 10
-262144 -1 -1 0 256;
#X obj 197 121 nbx 5 14 -1e+37 1e+37 0 0 empty empty empty 0 -8 0 10
-262144 -1 -1 48 256;
#X obj 177 296 hv.pinknoise;
#X obj 174 574 outlet~ audio;
#X obj 127 216 hv.osc saw;
#X obj 179 375 *~ 0.4;
#X obj 99 391 *~ 0.6;
#X obj 73 280 *~ 0.3;
#X obj 122 280 *~ 0.7;
#X obj 53 218 hv.osc sine;
#X connect 0 0 2 0;
#X connect 0 0 3 0;
#X connect 1 0 11 0;
#X connect 1 0 13 0;
#X connect 2 0 5 0;
#X connect 2 0 17 0;
#X connect 4 0 16 0;
#X connect 5 0 22 0;
#X connect 6 0 8 1;
#X connect 7 0 6 0;
#X connect 8 0 4 1;
#X connect 9 0 10 0;
#X connect 10 0 8 0;
#X connect 11 1 9 0;
#X connect 11 1 12 0;
#X connect 11 1 14 0;
#X connect 12 0 7 0;
#X connect 15 0 18 0;
#X connect 17 0 21 0;
#X connect 18 0 4 0;
#X connect 19 0 4 0;
#X connect 20 0 19 0;
#X connect 21 0 19 0;
#X connect 22 0 20 0;
