#N canvas 159 23 1564 1395 10;
#X declare -path heavylib;
#X obj 50 16 declare -path heavylib;
#X msg 1212 81 \; c_mystic_chord 0 36 42 34 40 43 50;
#X obj 1213 124 table c_mystic_chord 6;
#X obj 1173 158 6;
#X obj 392 724 hv.filter lowpass 400 1, f 30;
#X obj 750 725 hv.filter lowpass 400 1, f 39;
#X obj 850 613 nbx 5 14 -1e+37 1e+37 0 0 empty empty empty 0 -8 0 10
-262144 -1 -1 0.889764 256;
#X obj 850 665 + 400;
#X obj 570 982 *~;
#X obj 434 983 *~;
#X obj 488 917 sig~;
#X text 1251 189 size of 6 is hardcoded;
#X obj 514 18 loadbang;
#X obj 1193 46 loadbang;
#X obj 429 760 r burst @hv_param 0 127 0;
#X obj 939 36 r build @hv_param 0 127 0;
#X obj 488 860 / 127;
#X msg 225 241 36;
#X msg 374 241 42;
#X obj 287 270 + 37;
#X obj 287 241 random 90;
#X obj 427 270 + 37;
#X obj 427 241 random 90;
#X obj 569 270 + 37;
#X obj 569 241 random 90;
#X msg 516 241 34;
#X obj 717 270 + 37;
#X obj 717 241 random 90;
#X msg 669 241 40;
#X obj 870 270 + 37;
#X obj 870 241 random 90;
#X msg 822 241 43;
#X obj 1031 270 + 37;
#X obj 1031 241 random 90;
#X msg 980 241 50;
#X obj 513 52 bng 15 250 50 0 empty empty empty 17 7 0 10 -262144 -1
-1;
#X obj 978 67 hsl 128 15 0 127 0 0 empty empty empty -2 -8 0 10 -262144
-1 -1 11300 1;
#X obj 501 813 hsl 128 15 0 127 0 0 empty empty empty -2 -8 0 10 -262144
-1 -1 8900 1;
#X obj 399 650 *~ 0.9;
#X obj 765 649 *~ 0.9;
#X obj 465 1075 dac~, f 9;
#X obj 236 387 voice~, f 11;
#X obj 931 97 / 127;
#X obj 871 125 / 10;
#X obj 289 337 random 0.1;
#X obj 430 326 random 0.1;
#X obj 573 322 random 0.1;
#X obj 727 309 random 0.1;
#X obj 891 310 random 0.1;
#X obj 1036 308 random 0.1;
#X obj 527 387 voice~, f 11;
#X obj 385 387 voice~, f 12;
#X obj 680 387 voice~, f 12;
#X obj 833 387 voice~, f 12;
#X obj 991 387 voice~, f 15;
#X obj 850 638 * 1500;
#X obj 992 667 * 2.5;
#X connect 4 0 9 0;
#X connect 5 0 8 0;
#X connect 6 0 55 0;
#X connect 7 0 4 1;
#X connect 7 0 5 1;
#X connect 8 0 40 1;
#X connect 9 0 40 0;
#X connect 10 0 8 1;
#X connect 10 0 9 1;
#X connect 12 0 35 0;
#X connect 13 0 3 0;
#X connect 13 0 1 0;
#X connect 14 0 16 0;
#X connect 15 0 42 0;
#X connect 16 0 10 0;
#X connect 17 0 41 0;
#X connect 18 0 51 0;
#X connect 19 0 41 1;
#X connect 20 0 19 0;
#X connect 21 0 51 1;
#X connect 22 0 21 0;
#X connect 23 0 50 1;
#X connect 24 0 23 0;
#X connect 25 0 50 0;
#X connect 26 0 52 1;
#X connect 27 0 26 0;
#X connect 28 0 52 0;
#X connect 29 0 53 1;
#X connect 30 0 29 0;
#X connect 31 0 53 0;
#X connect 32 0 54 1;
#X connect 33 0 32 0;
#X connect 34 0 54 0;
#X connect 35 0 17 0;
#X connect 35 0 20 0;
#X connect 35 0 18 0;
#X connect 35 0 22 0;
#X connect 35 0 25 0;
#X connect 35 0 24 0;
#X connect 35 0 28 0;
#X connect 35 0 27 0;
#X connect 35 0 31 0;
#X connect 35 0 30 0;
#X connect 35 0 34 0;
#X connect 35 0 33 0;
#X connect 35 0 44 0;
#X connect 35 0 45 0;
#X connect 35 0 46 0;
#X connect 35 0 47 0;
#X connect 35 0 48 0;
#X connect 35 0 49 0;
#X connect 36 0 42 0;
#X connect 37 0 16 0;
#X connect 38 0 4 0;
#X connect 39 0 5 0;
#X connect 41 0 38 0;
#X connect 41 1 39 0;
#X connect 42 0 6 0;
#X connect 42 0 43 0;
#X connect 42 0 56 0;
#X connect 43 0 41 2;
#X connect 43 0 50 2;
#X connect 43 0 51 2;
#X connect 43 0 52 2;
#X connect 43 0 53 2;
#X connect 43 0 54 2;
#X connect 44 0 41 3;
#X connect 45 0 51 3;
#X connect 46 0 50 3;
#X connect 47 0 52 3;
#X connect 48 0 53 3;
#X connect 49 0 54 3;
#X connect 50 0 38 0;
#X connect 50 1 39 0;
#X connect 51 0 38 0;
#X connect 51 1 39 0;
#X connect 52 0 38 0;
#X connect 52 1 39 0;
#X connect 53 0 38 0;
#X connect 53 1 39 0;
#X connect 54 0 38 0;
#X connect 54 1 39 0;
#X connect 55 0 7 0;
#X connect 56 0 4 2;
#X connect 56 0 5 2;
