#N canvas 1348 23 1074 839 10;
#X obj 244 29 inlet maxrange;
#X obj 199 326 tabread c_mystic_chord;
#X obj 199 353 nbx 5 14 -1e+37 1e+37 0 0 empty empty empty 0 -8 0 10
-262144 -1 -1 34 256;
#X obj 351 240 bng 15 250 50 0 empty empty empty 17 7 0 10 -262144
-1 -1;
#X obj 362 321 nbx 5 14 -1e+37 1e+37 0 0 empty empty empty 0 -8 0 10
-262144 -1 -1 83 256;
#X obj 203 543 makenote, f 32;
#X obj 377 407 bng 15 250 50 0 empty empty empty 17 7 0 10 -262144
-1 -1;
#X obj 98 33 inlet bang;
#X obj 205 677 outlet note;
#X obj 390 678 outlet vel;
#X obj 142 100 delay;
#X obj 161 63 random 100;
#X obj 198 288 hv.drunk 0 5;
#X obj 467 437 random 1000;
#X obj 628 31 inlet maxduration;
#X obj 496 32 inlet minduration;
#X floatatom 416 407 5 0 0 0 - - -, f 5;
#X obj 429 493 + 200;
#X obj 344 28 inlet maxjump;
#X obj 349 294 + 40;
#X obj 349 267 random 87;
#X text 377 239 vel;
#X text 161 351 note;
#X text 474 494 duration;
#X obj 180 135 t b b b;
#X connect 0 0 12 1;
#X connect 1 0 2 0;
#X connect 2 0 5 0;
#X connect 2 0 6 0;
#X connect 3 0 20 0;
#X connect 5 0 8 0;
#X connect 5 1 9 0;
#X connect 7 0 10 0;
#X connect 10 0 24 0;
#X connect 11 0 10 1;
#X connect 12 0 1 0;
#X connect 13 0 17 0;
#X connect 14 0 13 1;
#X connect 15 0 16 0;
#X connect 16 0 17 1;
#X connect 17 0 5 2;
#X connect 18 0 12 2;
#X connect 19 0 4 0;
#X connect 19 0 5 1;
#X connect 20 0 19 0;
#X connect 24 0 3 0;
#X connect 24 1 12 0;
#X connect 24 2 13 0;
