#N canvas 744 292 1510 1015 10;
#X obj 84 47 inlet note;
#X obj 386 49 inlet velocity;
#X obj 76 153 mtof;
#X obj 121 156 nbx 5 14 -1e+37 1e+37 0 0 empty empty empty 0 -8 0 10
-262144 -1 -1 36 256;
#X obj 150 695 *~;
#X obj 405 156 / 127;
#X obj 386 89 select 0;
#X obj 463 91 nbx 5 14 -1e+37 1e+37 0 0 empty empty empty 0 -8 0 10
-262144 -1 -1 101 256;
#X obj 110 842 outlet~ audioleft;
#X obj 277 844 outlet~ audioright;
#X obj 475 516 nbx 5 14 -1e+37 1e+37 0 0 empty empty empty 0 -8 0 10
-262144 -1 -1 0.622047 256;
#X obj 577 571 nbx 5 14 -1e+37 1e+37 0 0 empty empty empty 0 -8 0 10
-262144 -1 -1 0.377953 256;
#X obj 518 430 / 127;
#X msg 552 496 1 \$1;
#X obj 554 528 -, f 4;
#X obj 513 360 random 40;
#X obj 510 387 + 44;
#X obj 278 787 *~;
#X obj 143 792 *~;
#X obj 511 325 bng 15 250 50 0 empty empty empty 17 7 0 10 -262144
-1 -1;
#X obj 76 308 hv.osc saw;
#X obj 69 216 sig~, f 6;
#X obj 494 268 t b;
#X obj 158 307 hv.osc saw;
#X obj 122 213 hv.osc sine;
#X obj 82 267 +~;
#X obj 199 128 loadbang;
#X msg 199 167 0;
#X obj 238 211 hv.osc sine;
#X obj 315 126 loadbang;
#X msg 315 165 45;
#X obj 148 725 *~ 0.16;
#X obj 196 466 hv.osc sine;
#X obj 153 558 +~;
#X obj 144 397 *~ 0.45;
#X obj 165 270 -~;
#X obj 188 511 *~ 0.05;
#X obj 586 40 inlet tremolo;
#X obj 536 91 sig~;
#X obj 595 92 nbx 5 14 -1e+37 1e+37 0 0 empty empty empty 0 -8 0 10
-262144 -1 -1 0.0700787 256;
#X obj 394 197 sig~;
#X obj 706 42 inlet tremeloamount;
#X connect 0 0 2 0;
#X connect 0 0 3 0;
#X connect 1 0 6 0;
#X connect 1 0 7 0;
#X connect 2 0 21 0;
#X connect 4 0 31 0;
#X connect 5 0 40 0;
#X connect 6 1 5 0;
#X connect 6 1 22 0;
#X connect 12 0 10 0;
#X connect 12 0 13 0;
#X connect 12 0 18 1;
#X connect 13 0 14 0;
#X connect 14 0 11 0;
#X connect 14 0 17 1;
#X connect 15 0 16 0;
#X connect 16 0 12 0;
#X connect 17 0 9 0;
#X connect 18 0 8 0;
#X connect 19 0 15 0;
#X connect 20 0 34 0;
#X connect 21 0 25 0;
#X connect 21 0 35 0;
#X connect 22 0 19 0;
#X connect 23 0 34 0;
#X connect 24 0 25 1;
#X connect 25 0 20 0;
#X connect 26 0 27 0;
#X connect 27 0 24 1;
#X connect 28 0 35 1;
#X connect 29 0 30 0;
#X connect 30 0 28 1;
#X connect 31 0 18 0;
#X connect 31 0 17 0;
#X connect 32 0 36 0;
#X connect 33 0 4 0;
#X connect 34 0 33 0;
#X connect 35 0 23 0;
#X connect 36 0 33 1;
#X connect 37 0 38 0;
#X connect 37 0 39 0;
#X connect 38 0 32 0;
#X connect 40 0 4 1;
#X connect 41 0 36 1;
